<svg version="1" xmlns="http://www.w3.org/2000/svg" width="933.333" height="933.333" viewBox="0 0 700.000000 700.000000"><path d="M295.9 25.4c-.2.2-3.5.6-7.4 1-25.6 2.3-55.5 9.9-80 20.4-6 2.6-26.5 13-30.5 15.6-24.4 15.6-38.2 26.5-55 43.5-34.9 35.2-58.9 75-74 122.7-3.5 10.8-8.2 28.7-9.4 35.4-.2 1.4-1.1 6.3-2 11-1.9 10.4-2.4 14.4-4.1 30.5-2.4 23.5-1.9 61.9 1.1 85.5.3 1.9.7 5.3 1 7.5 5.3 42.8 21.4 90 43.2 126.5 14.3 23.8 26.7 39.7 46.6 59.5 22.2 22.1 43.6 37.3 70.6 50.3 26.8 12.9 54 20.6 87 24.7 19.8 2.4 62.7 2.4 79 0 14.6-2.2 18.7-3 27.5-5.1 27.1-6.4 52.4-17.1 74.5-31.4 2.5-1.6 6.2-4 8.4-5.2 5.2-3.1 6.2-3.7 12.6-7.9 16.9-11.1 24.7-14.7 29.4-13.5 6.6 1.7 15 14.9 20.1 32.1 1.4 4.9 3.3 11 4.2 13.5.8 2.5 1.6 5.2 1.8 6 .2.8 1 4.1 2 7.2l1.6 5.8H570c23.7 0 26-.2 26.8-1.7.5-1 1-46.9 1-103.1.1-55.7.4-104.1.7-107.5 2.1-25.3 5.8-35.1 15.3-41.1 3.3-2.1 13.3-6.2 17.2-7.1 6.5-1.6 22.6-4.5 27.5-5 3.3-.4 6.4-1.1 7-1.6.6-.6 1-9.9 1.1-22.5.1-17.4-.1-21.8-1.2-22.9-1.3-1.2-22.1-1.4-142.9-1.4-126.6 0-141.6.1-143 1.5-1.3 1.4-1.5 4.8-1.3 23.7l.3 22.2 7 .6c15.6 1.5 20.8 2.3 32 5.1 19.8 4.9 26.7 11.3 30.9 28.8 2.3 9.8 2.9 17.6 2.8 38.2-.3 54.4-12.2 94.2-34.7 116.3-13.9 13.7-29.6 21.3-52.7 25.5-11.5 2.1-41.4 2.6-50.3.9-2.7-.5-6.3-1.2-8-1.5-6.8-1.2-22-6.9-29.1-11-35.2-20.1-55-58.4-65.3-126.4-1.1-6.9-2.2-15-2.5-18.1-.4-3.1-.8-6.5-1-7.6-.2-1.1-.7-6.2-1.1-11.4-.3-5.2-.8-11-1-12.9-2.6-24-2.6-116.5-.1-139.4.3-2.2.8-7 1.1-10.6 2-23.8 7.1-52.5 12.6-72 11.3-39.4 25.4-65.2 46.6-85 15.6-14.5 36.7-25.4 56.2-29 3.1-.5 6.7-1.2 8.1-1.5 8.4-1.6 31-2.3 39.5-1.2 7.9 1.1 15 2.1 15.5 2.2 63.1 13.1 110.1 63.1 137.4 146.2l2.8 8.3 4.6.1c29.8.6 40.6.3 42.2-1.1 1.6-1.4 1.7-8.7 1.6-105.7-.1-79-.4-104.5-1.3-105.4-.8-.8-8.2-1.2-25.5-1.3-13.4-.1-24.9 0-25.5.2-.7.2-1.3 1.2-1.3 2.2 0 3.6-3.3 14.6-6.1 20.7-2.9 6.1-12.1 15.9-13.9 14.8-.5-.3-1.1-.2-1.4.3-.9 1.5-10 1.3-17.1-.3-6.9-1.6-32-9.8-59.5-19.3-25.7-8.9-49.3-14.8-67.5-16.8-2.7-.3-6.1-.8-7.5-1.1-2.7-.6-50.5-1.4-51.1-.9z"/></svg>